<mxfile host="Electron" modified="2023-09-10T02:48:41.928Z" agent="Mozilla/5.0 (Macintosh; Intel Mac OS X 10_15_7) AppleWebKit/537.36 (KHTML, like Gecko) draw.io/21.6.8 Chrome/114.0.5735.289 Electron/25.5.0 Safari/537.36" etag="Q6sz9FdpIwhgPsRLG4BA" version="21.6.8" type="device">
  <diagram name="페이지-1" id="_abZ6tuI7WK9nKuFd7Ce">
    <mxGraphModel dx="839" dy="731" grid="1" gridSize="10" guides="1" tooltips="1" connect="1" arrows="1" fold="1" page="1" pageScale="1" pageWidth="827" pageHeight="1169" math="0" shadow="0">
      <root>
        <mxCell id="0" />
        <mxCell id="1" parent="0" />
        <mxCell id="CsOOA-4B-Fld4cjj5TsN-1" value="" style="endArrow=block;html=1;rounded=0;endFill=1;" edge="1" parent="1">
          <mxGeometry width="50" height="50" relative="1" as="geometry">
            <mxPoint x="200" y="160" as="sourcePoint" />
            <mxPoint x="200" y="360" as="targetPoint" />
          </mxGeometry>
        </mxCell>
        <mxCell id="CsOOA-4B-Fld4cjj5TsN-2" value="작업 1" style="rounded=0;whiteSpace=wrap;html=1;fillColor=#f5f5f5;fontColor=#333333;strokeColor=#666666;" vertex="1" parent="1">
          <mxGeometry x="160" y="190" width="80" height="30" as="geometry" />
        </mxCell>
        <mxCell id="CsOOA-4B-Fld4cjj5TsN-3" value="작업 2" style="rounded=0;whiteSpace=wrap;html=1;fillColor=#dae8fc;strokeColor=#6c8ebf;" vertex="1" parent="1">
          <mxGeometry x="160" y="240" width="80" height="30" as="geometry" />
        </mxCell>
        <mxCell id="CsOOA-4B-Fld4cjj5TsN-4" value="작업 1" style="rounded=0;whiteSpace=wrap;html=1;fillColor=#f5f5f5;fontColor=#333333;strokeColor=#666666;" vertex="1" parent="1">
          <mxGeometry x="160" y="290" width="80" height="30" as="geometry" />
        </mxCell>
        <mxCell id="CsOOA-4B-Fld4cjj5TsN-5" value="" style="endArrow=block;html=1;rounded=0;endFill=1;" edge="1" parent="1">
          <mxGeometry width="50" height="50" relative="1" as="geometry">
            <mxPoint x="510" y="160" as="sourcePoint" />
            <mxPoint x="510" y="360" as="targetPoint" />
          </mxGeometry>
        </mxCell>
        <mxCell id="CsOOA-4B-Fld4cjj5TsN-6" value="작업 1" style="rounded=0;whiteSpace=wrap;html=1;fillColor=#f5f5f5;fontColor=#333333;strokeColor=#666666;" vertex="1" parent="1">
          <mxGeometry x="470" y="190" width="80" height="130" as="geometry" />
        </mxCell>
        <mxCell id="CsOOA-4B-Fld4cjj5TsN-9" value="" style="endArrow=block;html=1;rounded=0;endFill=1;" edge="1" parent="1">
          <mxGeometry width="50" height="50" relative="1" as="geometry">
            <mxPoint x="610" y="160" as="sourcePoint" />
            <mxPoint x="610" y="360" as="targetPoint" />
          </mxGeometry>
        </mxCell>
        <mxCell id="CsOOA-4B-Fld4cjj5TsN-10" value="작업 2" style="rounded=0;whiteSpace=wrap;html=1;fillColor=#dae8fc;strokeColor=#6c8ebf;" vertex="1" parent="1">
          <mxGeometry x="570" y="190" width="80" height="130" as="geometry" />
        </mxCell>
        <mxCell id="CsOOA-4B-Fld4cjj5TsN-11" value="동시성" style="text;html=1;strokeColor=none;fillColor=none;align=center;verticalAlign=middle;whiteSpace=wrap;rounded=0;fontStyle=1" vertex="1" parent="1">
          <mxGeometry x="170" y="80" width="60" height="30" as="geometry" />
        </mxCell>
        <mxCell id="CsOOA-4B-Fld4cjj5TsN-12" value="병렬성" style="text;html=1;strokeColor=none;fillColor=none;align=center;verticalAlign=middle;whiteSpace=wrap;rounded=0;fontStyle=1" vertex="1" parent="1">
          <mxGeometry x="530" y="80" width="60" height="30" as="geometry" />
        </mxCell>
        <mxCell id="CsOOA-4B-Fld4cjj5TsN-13" value="코어 1" style="text;html=1;strokeColor=none;fillColor=none;align=center;verticalAlign=middle;whiteSpace=wrap;rounded=0;" vertex="1" parent="1">
          <mxGeometry x="170" y="130" width="60" height="30" as="geometry" />
        </mxCell>
        <mxCell id="CsOOA-4B-Fld4cjj5TsN-14" value="코어 1" style="text;html=1;strokeColor=none;fillColor=none;align=center;verticalAlign=middle;whiteSpace=wrap;rounded=0;" vertex="1" parent="1">
          <mxGeometry x="480" y="130" width="60" height="30" as="geometry" />
        </mxCell>
        <mxCell id="CsOOA-4B-Fld4cjj5TsN-15" value="코어 2" style="text;html=1;strokeColor=none;fillColor=none;align=center;verticalAlign=middle;whiteSpace=wrap;rounded=0;" vertex="1" parent="1">
          <mxGeometry x="580" y="130" width="60" height="30" as="geometry" />
        </mxCell>
        <mxCell id="CsOOA-4B-Fld4cjj5TsN-16" value="코어 2" style="text;html=1;strokeColor=none;fillColor=none;align=center;verticalAlign=middle;whiteSpace=wrap;rounded=0;" vertex="1" parent="1">
          <mxGeometry x="260" y="130" width="60" height="30" as="geometry" />
        </mxCell>
        <mxCell id="CsOOA-4B-Fld4cjj5TsN-17" value="" style="endArrow=block;html=1;rounded=0;endFill=1;" edge="1" parent="1">
          <mxGeometry width="50" height="50" relative="1" as="geometry">
            <mxPoint x="289.5" y="160" as="sourcePoint" />
            <mxPoint x="289.5" y="360" as="targetPoint" />
          </mxGeometry>
        </mxCell>
      </root>
    </mxGraphModel>
  </diagram>
</mxfile>
